<svg id="Layer_1" data-name="Layer 1" xmlns="http://www.w3.org/2000/svg" xmlns:xlink="http://www.w3.org/1999/xlink" viewBox="0 0 560.51 560.51"><defs><style>.cls-1{fill:#c9d52a;}.cls-2{fill:#091c1f;}.cls-3{clip-path:url(#clip-path);}.cls-4{fill:none;stroke:#fff;stroke-miterlimit:10;stroke-width:7.89px;}</style><clipPath id="clip-path"><path class="cls-1" d="M230.47,201.47,186,278.58a6.57,6.57,0,0,0,0,6.56l44.52,77.11a6.56,6.56,0,0,0,5.68,3.28h89a6.55,6.55,0,0,0,5.68-3.28l44.52-77.11a6.52,6.52,0,0,0,0-6.56l-44.52-77.11a6.55,6.55,0,0,0-5.68-3.28h-89A6.56,6.56,0,0,0,230.47,201.47Z"/></clipPath></defs><polygon class="cls-2" points="77.14 108.57 28.83 192.24 77.14 275.91 173.75 275.91 222.06 192.24 173.75 108.57 77.14 108.57"/><polygon class="cls-2" points="77.14 286.2 28.83 369.87 77.14 453.55 173.75 453.55 222.06 369.87 173.75 286.2 77.14 286.2"/><polygon class="cls-2" points="232.36 375.82 184.06 459.49 232.36 543.16 328.98 543.16 377.29 459.49 328.98 375.82 232.36 375.82"/><polygon class="cls-2" points="386.75 285.75 338.45 369.42 386.75 453.09 483.37 453.09 531.68 369.42 483.37 285.75 386.75 285.75"/><polygon class="cls-2" points="386.75 109.34 338.45 193.01 386.75 276.68 483.37 276.68 531.68 193.01 483.37 109.34 386.75 109.34"/><polygon class="cls-2" points="232.36 17.34 184.06 101.02 232.36 184.69 328.98 184.69 377.29 101.02 328.98 17.34 232.36 17.34"/><path class="cls-1" d="M230.47,201.47,186,278.58a6.57,6.57,0,0,0,0,6.56l44.52,77.11a6.56,6.56,0,0,0,5.68,3.28h89a6.55,6.55,0,0,0,5.68-3.28l44.52-77.11a6.52,6.52,0,0,0,0-6.56l-44.52-77.11a6.55,6.55,0,0,0-5.68-3.28h-89A6.56,6.56,0,0,0,230.47,201.47Z"/><g class="cls-3"><path class="cls-4" d="M232,366c33.2-55.77,32.12-113.17.35-168.94"/><path class="cls-4" d="M329.05,365.56c-33.21-55.78-31.83-111.49-.07-167.27"/></g></svg>